<?xml version="1.0" standalone="no"?>
<!DOCTYPE svg PUBLIC "-//W3C//DTD SVG 1.0//EN" "http://www.w3.org/TR/2001/REC-SVG-20010904/DTD/svg10.dtd">
<svg xmlns="http://www.w3.org/2000/svg" xmlns:xlink="http://www.w3.org/1999/xlink" id="body_1" width="836" height="623">

<g transform="matrix(0.4897481 0 0 0.4901652 0 0)">
	<g transform="matrix(0.1333594 0 0 -0.1333683 0 1271)">
	</g>
    <path transform="matrix(0.1333594 0 0 -0.1333683 0 1271)"  d="M6295 9516C 5897 9448 5616 9184 5563 8831C 5532 8622 5584 8468 5808 8113C 5950 7888 5999 7783 6015 7677L6015 7677L6022 7633L5913 7626C 5808 7619 5593 7598 4180 7450C 3814 7412 3403 7369 3267 7355L3267 7355L3019 7329L2949 7404C 2863 7496 2799 7531 2702 7537C 2569 7546 2379 7464 2255 7345C 2221 7312 2186 7275 2178 7262C 2164 7241 2145 7238 1849 7207C 1676 7188 1532 7176 1528 7179C 1525 7182 1486 7418 1442 7703C 1399 7987 1360 8223 1357 8226C 1348 8236 1040 8188 1040 8177C 1040 8169 1122 7638 1360 6107C 1408 5794 1451 5536 1454 5533C 1459 5527 1760 5568 1768 5575C 1770 5577 1726 5874 1670 6235C 1614 6596 1570 6893 1572 6895C 1577 6900 2086 6960 2122 6960C 2142 6960 2164 6951 2179 6936C 2194 6923 2324 6851 2470 6778C 2975 6522 3179 6377 3440 6092C 3549 5972 3611 5920 3700 5875C 3925 5761 4161 5769 4347 5896C 4417 5945 4474 6012 4535 6115C 4633 6282 4746 6358 4910 6368C 5017 6374 5078 6361 5185 6310C 5326 6242 5438 6119 5479 5986C 5489 5952 5501 5885 5504 5835C 5513 5714 5524 5656 5575 5445C 5633 5207 5644 5118 5630 5027C 5605 4864 5567 4823 5205 4565C 4852 4313 4731 4207 4622 4054C 4395 3736 4301 3264 4391 2900C 4416 2800 4480 2659 4542 2568C 4622 2451 4653 2334 4706 1960C 4725 1820 4761 1608 4785 1490C 4845 1192 4857 1088 4842 999C 4826 905 4813 883 4707 770C 4562 617 4498 493 4499 368C 4499 178 4647 67 4951 30C 5051 18 5243 15 5285 26C 5399 53 5465 134 5497 288C 5510 351 5511 391 5504 515C 5499 598 5496 728 5496 805L5496 805L5496 945L5558 1125C 5650 1396 5685 1634 5661 1840C 5638 2046 5609 2109 5422 2370C 5285 2561 5221 2676 5200 2769C 5184 2837 5192 2956 5216 3007C 5244 3065 5322 3136 5475 3240C 5552 3292 5647 3366 5687 3405C 5750 3468 5766 3492 5828 3620C 5867 3700 5922 3823 5950 3893C 6075 4210 6142 4287 6261 4251C 6338 4228 6373 4183 6516 3928C 6634 3717 6682 3648 6775 3551C 6873 3449 6990 3370 7244 3235C 7437 3132 7514 3078 7535 3027C 7564 2957 7492 2754 7403 2659C 7377 2631 7309 2574 7253 2533C 7196 2492 7130 2435 7104 2407C 7049 2344 6989 2223 6959 2115C 6933 2018 6936 1914 6976 1610C 7044 1092 7059 860 7042 627C 7035 538 7030 438 7030 405C 7031 156 7216 -15 7465 3C 7569 11 7823 55 7880 75C 7987 113 8045 187 8057 304C 8065 381 8053 392 7855 489C 7663 583 7598 636 7548 737C 7521 792 7515 817 7512 890C 7505 1033 7539 1150 7661 1406C 7765 1624 7812 1732 7900 1950C 8046 2313 8283 2971 8301 3060C 8316 3136 8308 3315 8286 3395C 8223 3624 8080 3851 7861 4071C 7726 4206 7591 4309 7424 4405C 7106 4587 7029 4663 7012 4814C 6998 4937 7018 5057 7116 5432C 7200 5755 7258 5930 7324 6065C 7428 6276 7530 6359 7651 6330C 7720 6313 7778 6266 7917 6115C 8228 5777 8393 5670 8604 5670C 8795 5671 8988 5787 9480 6195C 9732 6405 9893 6526 10045 6620C 10180 6704 10265 6780 10348 6893L10348 6893L10412 6978L10478 6960C 10515 6950 10682 6905 10850 6860C 11018 6815 11159 6774 11163 6770C 11170 6764 11119 6523 10938 5702C 10921 5624 10909 5558 10912 5555C 10914 5552 10985 5535 11069 5516C 11172 5494 11223 5486 11226 5494C 11228 5500 11275 5712 11330 5965C 11480 6647 11557 6999 11679 7555C 11739 7830 11790 8068 11792 8084L11792 8084L11795 8113L11650 8146C 11570 8164 11500 8179 11494 8179C 11487 8180 11475 8150 11467 8113C 11459 8075 11401 7816 11340 7535C 11279 7255 11226 7023 11224 7021C 11222 7019 11098 7053 10948 7098C 10798 7142 10642 7188 10603 7200C 10563 7211 10530 7223 10530 7226C 10530 7230 10537 7260 10546 7294C 10568 7378 10561 7508 10531 7575C 10459 7736 10235 7831 10066 7771C 9965 7736 9899 7689 9778 7568L9778 7568L9661 7451L9513 7484C 9000 7601 8589 7633 7467 7644C 7158 7647 6984 7653 6976 7659C 6969 7665 6950 7693 6935 7722C 6911 7765 6906 7787 6906 7841C 6906 7928 6937 7990 7040 8110C 7130 8213 7160 8260 7201 8361C 7243 8463 7261 8567 7261 8704C 7262 8978 7162 9212 6980 9363C 6918 9415 6791 9476 6695 9500C 6590 9527 6402 9534 6295 9516zM8180 7335C 8611 7310 8942 7282 9175 7249C 9324 7229 9458 7205 9465 7198C 9473 7191 9360 7060 9280 6981C 9239 6941 9169 6880 9125 6845C 8839 6622 8609 6543 8461 6617C 8396 6649 8366 6689 8305 6824C 8202 7053 8085 7190 7890 7310L7890 7310L7825 7350L7875 7350C 7903 7350 8040 7343 8180 7335zM4790 7249C 4715 7207 4578 7146 4380 7065C 4289 7028 4134 6960 4035 6914C 3832 6820 3747 6795 3650 6803C 3521 6814 3415 6872 3286 7004L3286 7004L3207 7085L3246 7092C 3267 7097 3600 7136 3985 7180C 4370 7225 4712 7265 4745 7269C 4844 7283 4848 7281 4790 7249z" stroke="none" fill="#000000" fill-rule="nonzero" />
	<g transform="matrix(0.1333594 0 0 -0.1333683 0 1271)">
	</g>
    <path transform="matrix(0.1333594 0 0 -0.1333683 0 1271)"  d="M640 7918C 571 7907 513 7896 510 7894C 508 7891 536 7692 573 7452C 760 6243 853 5645 856 5642C 859 5638 1128 5679 1156 5688C 1176 5695 1176 5698 1124 6030C 1025 6663 830 7925 830 7933C 830 7944 778 7940 640 7918z" stroke="none" fill="#000000" fill-rule="nonzero" />
	<g transform="matrix(0.1333594 0 0 -0.1333683 0 1271)">
	</g>
    <path transform="matrix(0.1333594 0 0 -0.1333683 0 1271)"  d="M11995 7848C 11993 7841 11950 7651 11901 7425C 11783 6885 11622 6152 11559 5867C 11531 5741 11511 5636 11514 5633C 11521 5626 11822 5558 11825 5562C 11826 5564 11864 5732 11908 5935C 11953 6139 12044 6553 12110 6855C 12176 7158 12249 7489 12272 7592C 12295 7696 12310 7783 12307 7786C 12304 7790 12243 7806 12173 7821C 12103 7837 12035 7852 12022 7855C 12009 7858 11998 7855 11995 7848z" stroke="none" fill="#000000" fill-rule="nonzero" />
	<g transform="matrix(0.1333594 0 0 -0.1333683 0 1271)">
	</g>
    <path transform="matrix(0.1333594 0 0 -0.1333683 0 1271)"  d="M305 7644C 300 7643 228 7632 147 7620L147 7620L-1 7597L4 7571C 7 7557 71 7147 146 6660C 221 6173 283 5774 284 5773C 285 5772 357 5782 444 5795C 531 5809 603 5820 606 5820C 608 5820 607 5826 605 5833C 603 5839 540 6243 465 6730C 390 7217 326 7622 322 7631C 318 7640 311 7646 305 7644z" stroke="none" fill="#000000" fill-rule="nonzero" />
	<g transform="matrix(0.1333594 0 0 -0.1333683 0 1271)">
	</g>
    <path transform="matrix(0.1333594 0 0 -0.1333683 0 1271)"  d="M12477 7508C 12471 7485 12387 7102 12190 6207C 12135 5955 12090 5744 12090 5736C 12090 5728 12142 5712 12245 5690C 12330 5672 12401 5658 12403 5661C 12405 5663 12444 5836 12490 6045C 12535 6254 12623 6657 12685 6940C 12748 7223 12797 7457 12794 7459C 12791 7463 12503 7529 12489 7530C 12485 7530 12480 7520 12477 7508z" stroke="none" fill="#000000" fill-rule="nonzero" />
</g>
</svg>